<svg width="19" height="20" viewBox="0 0 19 20" fill="none" xmlns="http://www.w3.org/2000/svg">
<path d="M16.914 8.89299L7.984 17.823C6.277 19.53 3.469 19.489 1.7115 17.732C-0.0460037 15.9745 -0.0870037 13.166 1.6205 11.459L10.55 2.52899M1.367 11.712L14.439 11.368" stroke="#495057" stroke-width="2" stroke-linecap="round"/>
<path d="M11.6965 8.45349C11.8841 8.26598 11.9895 8.01164 11.9895 7.74642C11.9896 7.48119 11.8842 7.22682 11.6967 7.03924C11.5092 6.85167 11.2549 6.74626 10.9897 6.74622C10.7244 6.74617 10.4701 6.85148 10.2825 7.03899C10.0949 7.2265 9.98951 7.48084 9.98947 7.74606C9.98942 8.01129 10.0947 8.26567 10.2822 8.45324C10.4697 8.64082 10.7241 8.74622 10.9893 8.74627C11.2545 8.74631 11.5089 8.641 11.6965 8.45349ZM8.86799 9.86749C8.9635 9.77524 9.03968 9.6649 9.09209 9.5429C9.1445 9.42089 9.17209 9.28967 9.17324 9.15689C9.1744 9.02411 9.14909 8.89243 9.09881 8.76954C9.04853 8.64664 8.97428 8.53499 8.88039 8.4411C8.78649 8.3472 8.67484 8.27295 8.55195 8.22267C8.42905 8.17239 8.29737 8.14709 8.16459 8.14824C8.03181 8.14939 7.90059 8.17698 7.77859 8.22939C7.65658 8.2818 7.54624 8.35798 7.45399 8.45349C7.27183 8.64209 7.17104 8.8947 7.17332 9.15689C7.1756 9.41909 7.28076 9.6699 7.46617 9.85531C7.65158 10.0407 7.90239 10.1459 8.16459 10.1482C8.42679 10.1504 8.67939 10.0496 8.86799 9.86749Z" fill="#495057"/>
<path d="M8.78198 0.760986L18.682 10.661" stroke="#495057" stroke-width="2" stroke-linecap="round"/>
</svg>
