<svg width="33" height="35" viewBox="0 0 33 35" fill="none" xmlns="http://www.w3.org/2000/svg">
<path d="M25.761 9.80155C25.3118 9.02566 24.5736 8.45934 23.7078 8.22655C23.2803 8.10899 22.8336 8.07828 22.394 8.13625C21.9544 8.19422 21.5309 8.33968 21.1485 8.56405C20.6343 8.86057 20.2075 9.28742 19.911 9.80155L17.7172 6.00468C17.4958 5.62038 17.2008 5.28349 16.8491 5.01328C16.4974 4.74307 16.0958 4.54483 15.6675 4.4299C15.2391 4.31497 14.7923 4.2856 14.3525 4.34347C13.9128 4.40135 13.4888 4.54533 13.1047 4.76718C12.5702 5.07166 12.1317 5.51986 11.8391 6.06093C11.4383 5.59468 10.9178 5.24677 10.3337 5.05477C9.74958 4.86277 9.12414 4.83397 8.52488 4.97148C7.92562 5.10899 7.37531 5.40759 6.93336 5.83503C6.49142 6.26248 6.17464 6.80252 6.01722 7.39687C5.86229 7.96302 5.86229 8.5604 6.01722 9.12655C5.59467 9.18623 5.1883 9.32966 4.8219 9.54843C4.4376 9.76986 4.10072 10.0649 3.8305 10.4166C3.56029 10.7683 3.36205 11.1698 3.24712 11.5982C3.13219 12.0266 3.10282 12.4734 3.1607 12.9131C3.21857 13.3529 3.36255 13.7769 3.5844 14.1609L4.09065 15.0328C3.49815 15.0301 2.91565 15.1855 2.40315 15.4828C1.62986 15.9326 1.06579 16.67 0.83397 17.5341C0.602148 18.3981 0.721376 19.3188 1.16565 20.0953L6.36878 29.1094C7.41455 30.9116 8.95144 32.3792 10.8 33.3408C12.6486 34.3023 14.7325 34.7182 16.8086 34.5397C18.8846 34.3613 20.8671 33.596 22.5245 32.3332C24.1819 31.0703 25.4458 29.3621 26.1688 27.4078C27.9579 25.7072 29.1254 23.4561 29.4848 21.014C29.8443 18.5719 29.3748 16.0799 28.1516 13.9359L25.761 9.80155ZM13.161 7.24218C13.2185 7.0296 13.3177 6.83059 13.4529 6.65676C13.5881 6.48293 13.7566 6.33775 13.9485 6.22968C14.1405 6.11875 14.3525 6.04676 14.5724 6.01783C14.7922 5.98889 15.0157 6.00357 15.2298 6.06104C15.444 6.1185 15.6448 6.21762 15.8206 6.35273C15.9965 6.48784 16.144 6.65628 16.2547 6.84843L19.4469 12.3609C19.0703 12.4359 18.709 12.5737 18.3782 12.7687C17.858 13.0573 17.4292 13.4861 17.1407 14.0062L14.9469 10.1953C14.6095 9.6245 14.117 9.16122 13.5266 8.85937L13.3297 8.53593C13.1067 8.14324 13.0462 7.67892 13.161 7.24218ZM7.64847 7.8328C7.73433 7.50972 7.91422 7.21942 8.16531 6.99873C8.4164 6.77804 8.72739 6.6369 9.05882 6.59321C9.39025 6.54952 9.72719 6.60525 10.0269 6.75334C10.3266 6.90143 10.5756 7.1352 10.7422 7.42499L11.4032 8.56405C10.9099 8.65531 10.4431 8.85539 10.0369 9.14973C9.63061 9.44408 9.29509 9.82528 9.05472 10.2656C8.76799 9.92469 8.41365 9.64697 8.01409 9.44999L7.81722 9.11249C7.59508 8.72465 7.53446 8.26497 7.64847 7.8328ZM20.5157 31.6547C18.3835 32.8842 15.8507 33.2179 13.4728 32.5826C11.0949 31.9473 9.06608 30.3948 7.83128 28.2656L2.62815 19.2516C2.51735 19.0595 2.44546 18.8475 2.41659 18.6277C2.38772 18.4078 2.40243 18.1844 2.45989 17.9703C2.51734 17.7561 2.61642 17.5554 2.75146 17.3795C2.88649 17.2037 3.05485 17.0561 3.2469 16.9453C3.43896 16.8345 3.65096 16.7626 3.8708 16.7337C4.09065 16.7049 4.31402 16.7196 4.52818 16.777C4.74233 16.8345 4.94307 16.9336 5.11894 17.0686C5.2948 17.2036 5.44235 17.372 5.55315 17.5641L8.92815 23.4141C9.00225 23.5424 9.10885 23.649 9.23722 23.723C9.36559 23.7971 9.5112 23.836 9.6594 23.8359C9.80713 23.8336 9.95202 23.795 10.0813 23.7234C10.1774 23.6681 10.2616 23.5943 10.3291 23.5064C10.3967 23.4185 10.4462 23.3181 10.475 23.211C10.5037 23.1039 10.511 22.9922 10.4966 22.8823C10.4821 22.7723 10.4461 22.6663 10.3907 22.5703L5.0469 13.3172C4.82313 12.9293 4.7626 12.4684 4.87864 12.0359C4.99468 11.6034 5.27777 11.2347 5.66565 11.0109C6.05353 10.7872 6.51442 10.7266 6.94693 10.8427C7.37943 10.9587 7.74813 11.2418 7.9719 11.6297L13.3157 20.8828C13.3711 20.9788 13.4448 21.063 13.5328 21.1305C13.6207 21.198 13.7211 21.2476 13.8281 21.2763C13.9352 21.305 14.0469 21.3124 14.1568 21.298C14.2667 21.2835 14.3728 21.2476 14.4688 21.1922C14.5648 21.1368 14.649 21.063 14.7165 20.9751C14.784 20.8871 14.8336 20.7868 14.8623 20.6797C14.891 20.5726 14.8984 20.4609 14.8839 20.351C14.8695 20.2411 14.8336 20.1351 14.7782 20.0391L10.5594 12.7266C10.3373 12.3387 10.2767 11.879 10.3907 11.4469C10.4465 11.2317 10.545 11.03 10.6802 10.8537C10.8155 10.6773 10.9848 10.53 11.1782 10.4203C11.5668 10.2 12.0265 10.1415 12.458 10.2572C12.8895 10.373 13.2582 10.6538 13.4844 11.0391L19.3907 21.2766C19.4648 21.4049 19.5714 21.5115 19.6997 21.5855C19.8281 21.6596 19.9737 21.6985 20.1219 21.6984C20.2694 21.6945 20.4139 21.6559 20.5438 21.5859C20.735 21.4716 20.8743 21.2872 20.932 21.072C20.9897 20.8568 20.9615 20.6275 20.8532 20.4328L18.6032 16.5234C18.4926 16.3325 18.4208 16.1215 18.3921 15.9027C18.3633 15.684 18.3781 15.4616 18.4356 15.2486C18.4931 15.0356 18.5922 14.836 18.7272 14.6614C18.8621 14.4868 19.0302 14.3406 19.2219 14.2312C19.4115 14.1182 19.6218 14.0441 19.8404 14.0133C20.059 13.9825 20.2816 13.9957 20.495 14.052C20.7085 14.1083 20.9086 14.2066 21.0836 14.3412C21.2586 14.4759 21.4049 14.644 21.5141 14.8359L23.9047 18.9844C24.5151 20.0386 24.9116 21.2028 25.0716 22.4104C25.2316 23.6181 25.1519 24.8454 24.8371 26.0222C24.5223 27.199 23.9786 28.3022 23.2371 29.2687C22.4956 30.2351 21.5708 31.0459 20.5157 31.6547ZM26.8438 23.7656C26.8752 21.7909 26.3645 19.8453 25.3672 18.1406L22.9766 13.9922C22.6478 13.423 22.1587 12.9633 21.5703 12.6703L21.3735 12.3328C21.2598 12.1422 21.1862 11.9304 21.1571 11.7104C21.1281 11.4903 21.1443 11.2667 21.2047 11.0531C21.2605 10.838 21.359 10.6363 21.4943 10.4599C21.6296 10.2836 21.7989 10.1362 21.9922 10.0266C22.3809 9.80628 22.8406 9.74771 23.2721 9.86347C23.7036 9.97924 24.0722 10.2601 24.2985 10.6453L26.6891 14.7797C27.4662 16.1444 27.8877 17.6826 27.9147 19.2529C27.9417 20.8231 27.5735 22.375 26.8438 23.7656ZM22.4703 3.54374L23.061 1.36405C23.1384 1.17321 23.283 1.01728 23.4675 0.925662C23.6519 0.834043 23.8635 0.81306 24.0624 0.866667C24.2613 0.920274 24.4336 1.04477 24.5471 1.21669C24.6605 1.38861 24.7071 1.59608 24.6782 1.79999L24.1016 3.97968C24.0544 4.15918 23.9484 4.31768 23.8006 4.42985C23.6527 4.54202 23.4715 4.60138 23.286 4.59843C23.2145 4.60292 23.1428 4.59336 23.075 4.5703C22.8589 4.51406 22.6739 4.37442 22.5605 4.18199C22.4472 3.98956 22.4148 3.76004 22.4703 3.54374ZM26.1407 4.92187L27.4203 3.07968C27.549 2.89506 27.7458 2.76912 27.9673 2.72957C28.1888 2.69001 28.417 2.74007 28.6016 2.86874C28.7862 2.99741 28.9121 3.19415 28.9517 3.41568C28.9913 3.63721 28.9412 3.86538 28.8125 4.04999L27.5188 5.89218C27.4427 6.00494 27.3401 6.09726 27.2199 6.16102C27.0997 6.22478 26.9657 6.25802 26.8297 6.2578C26.6543 6.25379 26.4837 6.20016 26.3375 6.10312C26.1572 5.97077 26.0356 5.7732 25.9989 5.55253C25.9621 5.33186 26.013 5.10556 26.1407 4.92187ZM31.9203 7.57968L30.0782 8.85937C29.9352 8.96283 29.7624 9.01711 29.586 9.01405C29.4076 9.0122 29.2344 8.95387 29.0912 8.84742C28.9481 8.74097 28.8424 8.59189 28.7892 8.4216C28.7361 8.2513 28.7383 8.06855 28.7956 7.8996C28.8528 7.73064 28.9621 7.58418 29.1078 7.48124L30.95 6.18749C31.1346 6.05882 31.3628 6.00876 31.5843 6.04832C31.8059 6.08787 32.0026 6.21381 32.1313 6.39843C32.26 6.58304 32.31 6.81121 32.2705 7.03274C32.2309 7.25427 32.105 7.45101 31.9203 7.57968Z" fill="#FE1468"/>
</svg>
