<svg width="103" height="409" viewBox="0 0 103 409" fill="none" xmlns="http://www.w3.org/2000/svg">
<path d="M16.6825 0.322754C-31.8172 110.323 46.1828 127.823 70.1828 200.823C94.1828 273.823 40.1829 325.823 40.1829 408.823" stroke="url(#paint0_linear_888_6052)" stroke-width="1.6"/>
<path d="M11.2916 27.4694C11.4018 26.9858 11.6215 26.6338 11.9507 26.4134C12.2919 26.2122 12.7199 26.1702 13.2347 26.2875L26.7368 29.3636C27.2516 29.4809 27.6114 29.7023 27.8161 30.0279C28.033 30.3727 28.0828 30.8025 27.9655 31.3173L26.1049 39.4841C26.0125 39.8897 25.8418 40.1708 25.5928 40.3274C25.3438 40.484 25.0321 40.5196 24.6577 40.4343C24.2677 40.3455 23.9865 40.1748 23.8143 39.9222C23.6577 39.6732 23.6256 39.3459 23.7181 38.9403L25.2588 32.1776L20.6021 31.1167L19.1733 37.388C19.0845 37.778 18.9155 38.0513 18.6665 38.2079C18.414 38.3801 18.1005 38.4235 17.7261 38.3382C17.3361 38.2494 17.0568 38.0709 16.8881 37.8027C16.7315 37.5537 16.6976 37.2342 16.7865 36.8442L18.2152 30.5729L12.5523 29.2828C11.4915 29.0411 11.0713 28.4366 11.2916 27.4694Z" fill="#FE1468"/>
<path d="M8.31841 40.5112C8.40142 40.0384 8.60689 39.7009 8.93483 39.4986C9.26276 39.2962 9.67887 39.2393 10.1832 39.3279L18.8584 40.8511C19.3785 40.9424 19.7503 41.1377 19.9739 41.4369C20.2133 41.7388 20.2915 42.1262 20.2085 42.5989C20.1255 43.0717 19.92 43.4093 19.5921 43.6116C19.2772 43.8325 18.8597 43.8972 18.3396 43.8059L9.66433 42.2827C9.16005 42.1941 8.78821 41.9989 8.54882 41.6969C8.30944 41.395 8.23263 40.9997 8.31841 40.5112ZM22.4069 42.9849C22.5037 42.4334 22.7138 42.0235 23.037 41.7554C23.3733 41.5058 23.7856 41.4239 24.2742 41.5096C24.7784 41.5982 25.1383 41.8157 25.3536 42.1621C25.5661 42.5244 25.624 42.9812 25.5271 43.5328C25.4275 44.1001 25.2175 44.51 24.897 44.7624C24.5765 45.0147 24.1642 45.0967 23.6599 45.0081C23.1713 44.9223 22.8115 44.7048 22.5805 44.3556C22.3651 44.0091 22.3073 43.5523 22.4069 42.9849Z" fill="#FE1468"/>
<path d="M6.52426 46.9291C6.54532 46.4496 6.68934 46.0876 6.95633 45.843C7.2393 45.5992 7.62855 45.4882 8.12407 45.51L17.1873 45.908C17.6829 45.9298 18.0529 46.0742 18.2974 46.3412C18.5419 46.6082 18.654 46.9734 18.6336 47.437C18.6133 47.9005 18.4696 48.2546 18.2026 48.4991C17.9356 48.7436 17.5544 48.855 17.0589 48.8332L15.4284 48.7616L16.0394 48.5242C16.8712 48.9131 17.4867 49.4846 17.886 50.2389C18.3005 51.0098 18.4871 51.8668 18.4457 52.8099C18.4043 53.753 18.1944 54.5205 17.816 55.1125C17.4377 55.7045 16.8822 56.1365 16.1496 56.4086C15.4329 56.6814 14.5311 56.794 13.4441 56.7462L7.64174 56.4914C7.14622 56.4696 6.76821 56.3249 6.5077 56.0572C6.26318 55.7902 6.15145 55.4169 6.17252 54.9374C6.19358 54.4579 6.33795 54.0878 6.60564 53.8273C6.88861 53.5835 7.27786 53.4725 7.77338 53.4943L13.4319 53.7428C14.343 53.7828 15.0141 53.6361 15.4452 53.3027C15.8755 52.9853 16.1065 52.4669 16.1381 51.7476C16.1767 50.8685 15.9279 50.1529 15.3916 49.6008C14.8706 49.0654 14.1545 48.7777 13.2434 48.7377L7.99243 48.5071C6.96942 48.4621 6.48003 47.9362 6.52426 46.9291Z" fill="#FE1468"/>
<path d="M5.41688 64.5048C5.30094 63.4874 5.44498 62.5611 5.84902 61.726C6.25487 60.9068 6.88641 60.2309 7.74363 59.6985C8.61675 59.1642 9.67329 58.8264 10.9133 58.685C12.1691 58.5419 13.2666 58.6342 14.2058 58.962C15.1609 59.288 15.9283 59.8044 16.508 60.5113C17.0896 61.2341 17.4384 62.1042 17.5543 63.1216C17.6648 64.0913 17.5224 64.9611 17.127 65.7308C16.7334 66.5164 16.1617 67.0808 15.4117 67.4239L15.3818 67.1616L21.5817 66.455C22.0745 66.3989 22.4625 66.4835 22.7459 66.7089C23.0292 66.9342 23.1981 67.2854 23.2524 67.7623C23.3068 68.2392 23.2213 68.6193 22.9959 68.9027C22.7723 69.2019 22.4142 69.3796 21.9213 69.4358L7.75703 71.0499C7.26422 71.1061 6.86819 71.0224 6.56896 70.7988C6.28561 70.5735 6.11677 70.2223 6.06242 69.7454C6.00807 69.2685 6.09358 68.8884 6.31895 68.605C6.56021 68.3199 6.92725 68.1492 7.42006 68.0931L9.28002 67.8811L8.59454 68.2249C7.74072 68.0807 7.02573 67.671 6.44959 66.9959C5.87344 66.3208 5.52921 65.4904 5.41688 64.5048ZM7.77733 65.0813C7.84436 65.6694 8.04632 66.1698 8.38319 66.5823C8.72006 66.9948 9.18029 67.2886 9.76386 67.4636C10.3651 67.6528 11.0871 67.6993 11.9296 67.6033C13.2014 67.4584 14.1165 67.0803 14.6748 66.4692C15.2491 65.8562 15.4855 65.1046 15.3841 64.2144C15.3171 63.6262 15.1151 63.1258 14.7782 62.7133C14.4573 62.299 13.9961 61.9973 13.3948 61.8081C12.8113 61.6331 12.0982 61.5936 11.2557 61.6896C9.9998 61.8327 9.07677 62.2117 8.48658 62.8264C7.9123 63.4394 7.67588 64.191 7.77733 65.0813Z" fill="#FE1468"/>
<path d="M9.79599 90.1738C9.32967 89.0508 9.15375 87.9804 9.26822 86.9627C9.3827 85.945 9.76597 85.0322 10.418 84.2244C11.0849 83.4105 11.9946 82.7642 13.1472 82.2856C14.019 81.9236 14.8469 81.7271 15.631 81.696C16.4359 81.6736 17.1835 81.805 17.8736 82.0901C18.5785 82.3692 19.1976 82.7964 19.7311 83.3718C20.2793 83.9411 20.7283 84.6469 21.078 85.4891C21.5444 86.6122 21.7203 87.6825 21.6058 88.7003C21.4913 89.718 21.108 90.6307 20.456 91.4385C19.8039 92.2464 18.9016 92.8896 17.749 93.3682C16.8772 93.7302 16.0388 93.9224 15.2338 93.9448C14.435 93.9819 13.6832 93.861 12.9783 93.582C12.2882 93.2969 11.669 92.8696 11.1208 92.3003C10.5873 91.7249 10.1457 91.0161 9.79599 90.1738ZM11.9017 89.2995C12.1287 89.8462 12.4611 90.2712 12.8989 90.5745C13.3367 90.8778 13.8602 91.0329 14.4694 91.0398C15.0995 91.0554 15.8062 90.9005 16.5893 90.5753C17.7715 90.0845 18.5464 89.4682 18.9141 88.7265C19.2965 87.9787 19.316 87.191 18.9723 86.3635C18.7453 85.8168 18.4129 85.3917 17.9751 85.0884C17.5521 84.779 17.0256 84.6165 16.3954 84.601C15.7862 84.5941 15.09 84.7532 14.3068 85.0784C13.1395 85.5631 12.3572 86.1825 11.9599 86.9364C11.5775 87.6843 11.5581 88.472 11.9017 89.2995Z" fill="#FE1468"/>
<path d="M14.436 101.735C13.9535 100.887 13.707 100.097 13.6966 99.3668C13.7001 98.6286 13.9356 97.9424 14.4033 97.3083C14.8789 96.688 15.5826 96.113 16.5144 95.583L21.5629 92.7116C22.008 92.4584 22.3981 92.3838 22.7333 92.4877C23.0824 92.5837 23.3756 92.8403 23.6129 93.2575C23.8502 93.6747 23.9209 94.0579 23.8249 94.407C23.7507 94.7621 23.4911 95.0662 23.0461 95.3193L17.9558 98.2144C17.2326 98.6258 16.7802 99.0763 16.5986 99.5662C16.417 100.056 16.5082 100.621 16.8721 101.261C17.2676 101.956 17.8283 102.392 18.5543 102.568C19.2942 102.736 20.0605 102.595 20.8533 102.144L25.4429 99.5334C25.8879 99.2803 26.2781 99.2056 26.6132 99.3095C26.9623 99.4055 27.2555 99.6621 27.4928 100.079C27.7301 100.497 27.8008 100.88 27.7048 101.229C27.6307 101.584 27.3711 101.888 26.926 102.141L19.0403 106.626C18.1502 107.132 17.4639 106.961 16.9813 106.113C16.7519 105.71 16.6852 105.333 16.7812 104.984C16.8911 104.627 17.1616 104.326 17.5927 104.081L19.1782 103.179L18.7185 103.827C17.8013 103.962 16.971 103.846 16.2276 103.477C15.492 103.122 14.8948 102.542 14.436 101.735Z" fill="#FE1468"/>
<path d="M21.8745 114.562C21.3036 113.693 20.9721 112.867 20.8798 112.086C20.7964 111.317 20.9432 110.608 21.3205 109.959C21.7111 109.3 22.3277 108.694 23.1702 108.141L27.4431 105.335L26.758 104.292C26.5472 103.971 26.465 103.67 26.5113 103.391C26.571 103.103 26.7479 102.862 27.0421 102.669C27.3497 102.467 27.6409 102.4 27.9155 102.469C28.1902 102.537 28.4329 102.732 28.6437 103.053L29.3288 104.096L31.1543 102.897C31.5689 102.625 31.9534 102.526 32.308 102.599C32.6713 102.686 32.9846 102.93 33.2481 103.331C33.5116 103.732 33.6067 104.11 33.5332 104.465C33.4598 104.819 33.2158 105.133 32.8012 105.405L30.9757 106.604L32.3722 108.73C32.583 109.051 32.6652 109.351 32.6189 109.631C32.5726 109.91 32.3957 110.15 32.0881 110.352C31.7939 110.546 31.5027 110.612 31.2147 110.553C30.94 110.484 30.6973 110.29 30.4865 109.969L29.09 107.842L24.9575 110.556C24.3156 110.978 23.9264 111.434 23.7898 111.926C23.6533 112.418 23.7915 112.978 24.2043 113.606C24.3536 113.834 24.5054 114.021 24.6597 114.169C24.814 114.316 24.9418 114.452 25.043 114.577C25.1617 114.729 25.1961 114.898 25.146 115.084C25.1092 115.261 24.917 115.464 24.5693 115.692C24.3018 115.868 24.0304 115.979 23.7549 116.026C23.5016 116.078 23.2602 116.016 23.0306 115.842C22.8629 115.703 22.6668 115.506 22.4422 115.252C22.2043 115.006 22.0151 114.776 21.8745 114.562Z" fill="#FE1468"/>
<path d="M32.0979 129.15C31.8087 128.767 31.6892 128.396 31.7393 128.037C31.8021 127.669 32.0315 127.336 32.4274 127.037L39.668 121.571C40.0639 121.272 40.4411 121.148 40.7997 121.198C41.1583 121.248 41.4773 121.458 41.7569 121.829C42.0364 122.199 42.1511 122.563 42.1011 122.922C42.051 123.281 41.828 123.609 41.4321 123.908L40.0338 124.964L40.4494 124.319C41.2807 124.093 42.0839 124.108 42.8591 124.364C43.6343 124.621 44.3015 125.12 44.8606 125.861C45.4293 126.614 45.7181 127.368 45.7268 128.124C45.7355 128.879 45.4419 129.632 44.8458 130.382L44.6434 130.114C45.513 129.859 46.3611 129.88 47.1876 130.178C48.0269 130.467 48.7357 130.994 49.3141 131.76C49.8539 132.476 50.1569 133.169 50.223 133.841C50.2987 134.525 50.136 135.2 49.7348 135.863C49.3465 136.517 48.7181 137.172 47.8497 137.827L43.2141 141.327C42.8183 141.625 42.4298 141.748 42.0489 141.695C41.6903 141.645 41.3664 141.428 41.0773 141.045C40.7881 140.662 40.6685 140.291 40.7186 139.933C40.7815 139.565 41.0108 139.231 41.4067 138.932L45.9465 135.505C46.6616 134.966 47.0936 134.449 47.2425 133.956C47.401 133.475 47.2682 132.954 46.844 132.392C46.3717 131.766 45.7771 131.443 45.0602 131.423C44.3561 131.393 43.6146 131.673 42.8356 132.261L38.7172 135.369C38.3214 135.668 37.9378 135.797 37.5664 135.757C37.2079 135.707 36.884 135.49 36.5948 135.107C36.3056 134.724 36.1813 134.347 36.2217 133.976C36.2846 133.607 36.5139 133.274 36.9098 132.975L41.4496 129.548C42.1647 129.008 42.5967 128.492 42.7456 127.998C42.9041 127.518 42.7761 127.003 42.3616 126.454C41.8893 125.828 41.2947 125.505 40.5778 125.485C39.8737 125.455 39.1322 125.734 38.3532 126.322L34.2348 129.431C33.4175 130.048 32.7052 129.954 32.0979 129.15Z" fill="#FE1468"/>
<path d="M47.6886 149.811C46.9885 148.817 46.5833 147.811 46.473 146.793C46.3627 145.775 46.5376 144.8 46.9977 143.87C47.4709 142.93 48.2177 142.101 49.2381 141.382C50.01 140.838 50.7751 140.466 51.5335 140.265C52.3141 140.067 53.0723 140.032 53.808 140.16C54.5568 140.279 55.2543 140.56 55.9004 141.006C56.5596 141.442 57.1518 142.032 57.6769 142.778C58.3769 143.772 58.7822 144.779 58.8925 145.797C59.0028 146.815 58.8279 147.789 58.3678 148.72C57.9076 149.651 57.1674 150.475 56.147 151.194C55.3751 151.737 54.5989 152.108 53.8182 152.305C53.0467 152.516 52.2866 152.562 51.5378 152.443C50.8021 152.315 50.1047 152.034 49.4454 151.598C48.7993 151.152 48.2137 150.557 47.6886 149.811ZM49.5528 148.499C49.8937 148.983 50.3108 149.325 50.8042 149.525C51.2976 149.726 51.8423 149.763 52.4384 149.637C53.0567 149.515 53.7126 149.209 54.4059 148.721C55.4525 147.984 56.0743 147.214 56.2713 146.41C56.4814 145.596 56.3285 144.823 55.8126 144.091C55.4718 143.607 55.0547 143.264 54.5613 143.064C54.0809 142.854 53.5316 142.811 52.9133 142.933C52.3172 143.059 51.6725 143.366 50.9792 143.855C49.9457 144.582 49.3173 145.357 49.0942 146.18C48.8841 146.993 49.037 147.766 49.5528 148.499Z" fill="#FE1468"/>
<path d="M54.0349 158.593C53.7671 158.176 53.6675 157.784 53.7361 157.416C53.8268 157.054 54.0809 156.739 54.4984 156.471L62.1345 151.573C62.552 151.305 62.9376 151.21 63.2913 151.287C63.645 151.364 63.9471 151.598 64.1976 151.989C64.4481 152.379 64.5348 152.752 64.4575 153.105C64.3802 153.459 64.1329 153.77 63.7154 154.038L62.4427 154.854L62.3131 154.652C63.2421 154.322 64.0924 154.299 64.8641 154.584C65.6358 154.868 66.3558 155.442 67.024 156.306C67.2323 156.572 67.3008 156.842 67.2294 157.115C67.1801 157.394 66.989 157.659 66.6561 157.911C66.3367 158.154 66.0088 158.25 65.6724 158.2C65.3581 158.154 65.0641 157.963 64.7904 157.625L64.465 157.206C63.8572 156.437 63.2039 155.981 62.5052 155.84C61.8199 155.691 61.0934 155.862 60.3258 156.354L56.1441 159.037C55.7266 159.305 55.3343 159.404 54.9671 159.335C54.6134 159.258 54.3027 159.011 54.0349 158.593Z" fill="#FE1468"/>
<path d="M61.897 170.972C61.272 169.8 60.9525 168.674 60.9383 167.594C60.9242 166.513 61.1952 165.525 61.7514 164.63C62.3151 163.749 63.1476 163.015 64.2487 162.428C65.3217 161.856 66.3772 161.574 67.4153 161.582C68.4609 161.605 69.4167 161.884 70.2826 162.419C71.1702 162.961 71.8813 163.733 72.4159 164.736C72.8074 165.47 73.0376 166.19 73.1063 166.897C73.1826 167.618 73.104 168.304 72.8706 168.954C72.6447 169.619 72.2636 170.23 71.7271 170.788C71.2123 171.353 70.5526 171.85 69.7479 172.279C69.4938 172.414 69.2472 172.428 69.0081 172.32C68.7907 172.218 68.5954 172.005 68.4222 171.68L64.7966 164.883L66.3213 164.07L69.4951 170.02L68.9968 169.851C69.6462 169.504 70.137 169.116 70.4692 168.685C70.8089 168.268 70.9939 167.815 71.024 167.328C71.0757 166.847 70.9585 166.338 70.6724 165.802C70.3561 165.209 69.9439 164.776 69.4356 164.503C68.949 164.237 68.3914 164.126 67.7627 164.171C67.1556 164.223 66.5062 164.433 65.8145 164.802L65.6662 164.881C64.5086 165.499 63.7835 166.23 63.4908 167.075C63.2197 167.927 63.3666 168.882 63.9313 169.941C64.1271 170.308 64.3878 170.695 64.7135 171.102C65.0608 171.515 65.4566 171.866 65.9008 172.155C66.2284 172.361 66.4383 172.584 66.5305 172.825C66.6369 173.059 66.6533 173.277 66.5799 173.479C66.5141 173.696 66.3828 173.874 66.1861 174.016C66.0035 174.149 65.7762 174.216 65.5042 174.216C65.2397 174.23 64.9621 174.152 64.6712 173.98C64.0971 173.652 63.5592 173.204 63.0576 172.638C62.5775 172.078 62.1907 171.522 61.897 170.972Z" fill="#FE1468"/>
<path d="M73.0408 193.79C72.793 192.979 72.7238 192.205 72.8334 191.469C72.963 190.743 73.2395 190.115 73.6628 189.584C74.0907 189.068 74.6414 188.708 75.3146 188.502C76.1409 188.249 76.8567 188.265 77.4619 188.548C78.0825 188.827 78.6473 189.416 79.1561 190.314C79.665 191.213 80.1673 192.473 80.663 194.095L81.0138 195.243L79.3612 195.748L79.0175 194.623C78.7275 193.674 78.4501 192.931 78.1853 192.393C77.9204 191.855 77.6358 191.498 77.3315 191.324C77.0471 191.16 76.706 191.138 76.3082 191.26C75.8032 191.414 75.4439 191.717 75.2301 192.167C75.0164 192.617 75.0054 193.156 75.1971 193.783C75.3514 194.288 75.6018 194.697 75.9483 195.009C76.3147 195.332 76.7395 195.545 77.2228 195.648C77.7061 195.752 78.2155 195.721 78.7511 195.558L81.3905 194.751C82.1556 194.517 82.655 194.18 82.8887 193.741C83.1225 193.301 83.1177 192.684 82.8745 191.888C82.7389 191.444 82.538 190.979 82.2719 190.491C82.0105 190.019 81.6632 189.54 81.23 189.053C81.0034 188.804 80.8857 188.556 80.8767 188.308C80.8725 188.075 80.9434 187.869 81.0896 187.691C81.2511 187.507 81.4467 187.381 81.6762 187.311C81.9057 187.24 82.1463 187.234 82.3979 187.291C82.6648 187.343 82.8963 187.498 83.0922 187.756C83.5981 188.371 84.0104 188.981 84.3293 189.586C84.6528 190.207 84.8964 190.785 85.0601 191.321C85.3968 192.422 85.5044 193.376 85.3829 194.183C85.2661 195.005 84.9172 195.697 84.3362 196.26C83.7705 196.818 82.9521 197.26 81.881 197.587L76.3726 199.271C75.8983 199.416 75.4959 199.414 75.1657 199.264C74.8507 199.109 74.6277 198.817 74.4968 198.389C74.3658 197.96 74.3854 197.586 74.5554 197.267C74.7453 196.958 75.0775 196.731 75.5518 196.586L76.6535 196.249L76.7096 196.433C76.1413 196.489 75.6092 196.418 75.1131 196.218C74.6371 196.029 74.2194 195.73 73.8602 195.321C73.5011 194.912 73.2279 194.402 73.0408 193.79Z" fill="#FE1468"/>
<path d="M77.5541 207.956C77.3733 206.948 77.4579 206.015 77.8077 205.155C78.1603 204.312 78.7473 203.597 79.5688 203.011C80.4059 202.422 81.4387 202.017 82.6671 201.797C83.9113 201.574 85.0124 201.596 85.9706 201.863C86.9446 202.127 87.7434 202.593 88.3672 203.262C88.9938 203.946 89.3975 204.792 89.5783 205.8C89.7505 206.76 89.664 207.637 89.3186 208.431C88.9761 209.24 88.4416 209.84 87.7151 210.23L87.6685 209.97L93.8105 208.869C94.2987 208.781 94.6914 208.841 94.9886 209.048C95.2857 209.254 95.4767 209.594 95.5614 210.066C95.6462 210.539 95.5851 210.924 95.3783 211.221C95.1744 211.534 94.8283 211.734 94.3401 211.822L80.308 214.338C79.8197 214.426 79.4192 214.367 79.1063 214.164C78.8091 213.957 78.6181 213.617 78.5334 213.145C78.4487 212.672 78.5097 212.287 78.7165 211.99C78.939 211.69 79.2944 211.496 79.7826 211.409L81.6252 211.078L80.9631 211.465C80.1018 211.376 79.3621 211.013 78.744 210.376C78.1258 209.739 77.7292 208.932 77.5541 207.956ZM79.9466 208.38C80.0511 208.963 80.2846 209.449 80.6472 209.84C81.0097 210.23 81.4878 210.493 82.0814 210.631C82.6935 210.781 83.4169 210.781 84.2516 210.632C85.5115 210.406 86.4005 209.97 86.9187 209.324C87.4526 208.676 87.6405 207.911 87.4823 207.029C87.3778 206.446 87.1443 205.96 86.7817 205.57C86.4349 205.177 85.9555 204.905 85.3433 204.755C84.7497 204.617 84.0356 204.624 83.2009 204.773C81.9568 204.996 81.0599 205.434 80.5102 206.085C79.9763 206.733 79.7884 207.498 79.9466 208.38Z" fill="#FE1468"/>
<path d="M80.4434 223.986C80.4175 223.587 80.4986 223.229 80.6865 222.912C80.8754 222.611 81.1792 222.351 81.5979 222.131L90.1888 217.751C90.5307 217.585 90.8544 217.507 91.1599 217.52C91.4663 217.548 91.7151 217.676 91.9063 217.904C92.1144 218.147 92.2325 218.484 92.2604 218.916C92.2842 219.283 92.2155 219.584 92.0543 219.819C91.9091 220.053 91.6107 220.272 91.1591 220.478L83.2974 224.234L83.2508 223.515L91.5615 226.32C92.0199 226.467 92.3362 226.647 92.5104 226.86C92.7015 227.088 92.81 227.402 92.8359 227.801C92.8586 228.152 92.7809 228.438 92.6028 228.658C92.4406 228.877 92.2093 229.02 91.9091 229.087C91.6248 229.154 91.3018 229.119 90.9402 228.982L81.8275 225.676C81.385 225.528 81.0502 225.309 80.823 225.02C80.5968 224.746 80.4703 224.401 80.4434 223.986Z" fill="#FE1468"/>
<path d="M81.3466 236.56C81.3865 235.713 81.5821 234.961 81.9334 234.305C82.2999 233.665 82.7719 233.167 83.3493 232.81C83.926 232.468 84.566 232.314 85.2692 232.347C86.1322 232.388 86.801 232.644 87.2753 233.115C87.7657 233.586 88.099 234.331 88.2753 235.348C88.4516 236.366 88.4999 237.721 88.4201 239.416L88.3636 240.614L86.6375 240.533L86.6929 239.358C86.7395 238.367 86.7289 237.574 86.6608 236.978C86.5928 236.382 86.4449 235.951 86.2173 235.684C86.0048 235.434 85.6908 235.299 85.2753 235.279C84.7478 235.254 84.3077 235.418 83.9547 235.769C83.6018 236.121 83.4099 236.625 83.379 237.28C83.3541 237.807 83.4522 238.277 83.6731 238.687C83.9092 239.115 84.2374 239.459 84.6576 239.719C85.0779 239.979 85.5677 240.122 86.127 240.149L88.884 240.278C89.6831 240.316 90.2667 240.167 90.6349 239.832C91.0031 239.497 91.2068 238.914 91.2459 238.083C91.2678 237.62 91.2355 237.114 91.1493 236.565C91.0622 236.032 90.8968 235.464 90.653 234.86C90.5234 234.549 90.4963 234.276 90.5715 234.039C90.646 233.818 90.7821 233.648 90.9799 233.53C91.1937 233.411 91.4205 233.358 91.6602 233.369C91.8999 233.381 92.1287 233.456 92.3464 233.594C92.5801 233.733 92.7457 233.957 92.8433 234.266C93.1123 235.016 93.295 235.729 93.3912 236.406C93.4867 237.099 93.5213 237.726 93.4949 238.285C93.4407 239.436 93.2205 240.371 92.8342 241.089C92.4472 241.824 91.8855 242.358 91.1489 242.692C90.4284 243.026 89.5087 243.167 88.39 243.114L82.6364 242.843C82.1409 242.82 81.763 242.682 81.5026 242.429C81.2582 242.178 81.1465 241.828 81.1676 241.38C81.1887 240.933 81.3331 240.587 81.6008 240.344C81.8838 240.117 82.2731 240.015 82.7685 240.038L83.9192 240.093L83.9102 240.284C83.3561 240.146 82.8792 239.899 82.4794 239.544C82.0949 239.206 81.8025 238.783 81.6021 238.277C81.4017 237.772 81.3165 237.199 81.3466 236.56Z" fill="#FE1468"/>
<path d="M81.2219 248.845C81.2946 248.371 81.4768 248.026 81.7686 247.812C82.0762 247.6 82.4752 247.532 82.9655 247.607L91.9329 248.98C92.4232 249.055 92.7755 249.238 92.9898 249.53C93.2041 249.822 93.2761 250.197 93.2059 250.656C93.1357 251.115 92.9546 251.451 92.6628 251.665C92.371 251.88 91.98 251.949 91.4897 251.874L89.8765 251.627L90.5096 251.457C91.2945 251.933 91.8448 252.568 92.1604 253.361C92.4894 254.172 92.5825 255.044 92.4396 255.977C92.2967 256.91 92.0052 257.651 91.5653 258.199C91.1253 258.746 90.5264 259.116 89.7687 259.307C89.0268 259.501 88.1181 259.516 87.0427 259.351L81.3016 258.472C80.8113 258.397 80.4511 258.212 80.221 257.918C80.0067 257.626 79.9359 257.243 80.0085 256.769C80.0812 256.294 80.2646 255.942 80.5588 255.712C80.8665 255.5 81.2654 255.432 81.7557 255.507L87.3544 256.364C88.2559 256.502 88.9389 256.429 89.4034 256.144C89.8655 255.874 90.151 255.384 90.26 254.672C90.3932 253.802 90.223 253.064 89.7494 252.457C89.2891 251.869 88.6083 251.506 87.7068 251.368L82.5113 250.572C81.4991 250.417 81.0693 249.841 81.2219 248.845Z" fill="#FE1468"/>
<path d="M78.1643 267.679C78.3789 266.662 78.731 265.845 79.2207 265.228C79.7071 264.628 80.3138 264.233 81.0406 264.042C81.7832 263.856 82.6476 263.866 83.6339 264.074L88.6359 265.129L88.8934 263.908C88.9726 263.532 89.1277 263.262 89.3584 263.099C89.6049 262.938 89.9003 262.894 90.2448 262.967C90.6048 263.043 90.8573 263.202 91.0023 263.445C91.1472 263.688 91.1801 263.998 91.1008 264.374L90.8433 265.595L92.9803 266.045C93.4656 266.148 93.8071 266.351 94.0048 266.654C94.1992 266.973 94.2468 267.367 94.1478 267.837C94.0487 268.306 93.8475 268.64 93.5442 268.838C93.2409 269.035 92.8466 269.083 92.3612 268.981L90.2243 268.53L89.6993 271.019C89.62 271.395 89.465 271.665 89.2342 271.829C89.0035 271.993 88.708 272.037 88.3479 271.961C88.0035 271.888 87.751 271.729 87.5904 271.482C87.4455 271.239 87.4126 270.93 87.4918 270.554L88.0168 268.065L83.1792 267.044C82.4277 266.886 81.8295 266.931 81.3844 267.181C80.9393 267.43 80.6392 267.923 80.484 268.659C80.4279 268.925 80.4019 269.165 80.4059 269.378C80.41 269.592 80.4033 269.778 80.3859 269.938C80.362 270.129 80.2663 270.273 80.099 270.368C79.9474 270.467 79.668 270.474 79.261 270.388C78.9478 270.322 78.6776 270.207 78.4502 270.045C78.2352 269.902 78.1088 269.687 78.071 269.401C78.0513 269.184 78.0526 268.907 78.075 268.568C78.0817 268.226 78.1115 267.93 78.1643 267.679Z" fill="#FE1468"/>
<path d="M76.4462 276.119C76.6698 275.301 77.0245 274.61 77.5103 274.047C78.0074 273.502 78.5766 273.119 79.218 272.896C79.8552 272.689 80.5134 272.678 81.1925 272.863C82.0259 273.091 82.6228 273.487 82.9831 274.05C83.3589 274.617 83.522 275.416 83.4723 276.447C83.4227 277.479 83.1743 278.812 82.7271 280.448L82.4108 281.606L80.7439 281.15L81.0539 280.016C81.3155 279.059 81.478 278.282 81.5414 277.686C81.6049 277.09 81.5546 276.636 81.3906 276.326C81.2378 276.036 80.9608 275.836 80.5595 275.726C80.0501 275.587 79.5849 275.65 79.1638 275.917C78.7427 276.183 78.4456 276.633 78.2727 277.265C78.1335 277.775 78.1269 278.254 78.253 278.703C78.3902 279.172 78.6356 279.579 78.9891 279.924C79.3425 280.27 79.7893 280.516 80.3295 280.664L82.9919 281.392C83.7636 281.602 84.3656 281.585 84.7979 281.338C85.2303 281.091 85.5561 280.566 85.7755 279.764C85.8978 279.316 85.9766 278.815 86.012 278.261C86.0432 277.722 86.0056 277.131 85.8993 276.489C85.8405 276.157 85.8737 275.884 85.9987 275.67C86.1195 275.471 86.2893 275.335 86.5083 275.262C86.7427 275.193 86.9756 275.19 87.2071 275.254C87.4386 275.317 87.6455 275.44 87.8279 275.622C88.0256 275.809 88.1385 276.064 88.1664 276.387C88.2656 277.177 88.2883 277.913 88.2347 278.595C88.1767 279.292 88.074 279.911 87.9263 280.451C87.6226 281.562 87.204 282.427 86.6704 283.044C86.1326 283.676 85.468 284.075 84.6764 284.24C83.9003 284.41 82.9721 284.347 81.8917 284.052L76.3354 282.533C75.857 282.402 75.5182 282.185 75.3191 281.882C75.1354 281.583 75.1026 281.218 75.2208 280.785C75.3389 280.353 75.5551 280.047 75.8696 279.868C76.1952 279.708 76.5973 279.694 77.0757 279.824L78.187 280.128L78.1363 280.313C77.6257 280.058 77.214 279.713 76.9013 279.279C76.5998 278.865 76.4064 278.389 76.3211 277.852C76.2358 277.314 76.2775 276.737 76.4462 276.119Z" fill="#FE1468"/>
<path d="M68.1537 290.014C68.4142 289.191 68.7436 288.414 69.1422 287.684C69.5359 286.969 69.9918 286.35 70.5099 285.826C70.7541 285.584 70.9999 285.444 71.2472 285.404C71.4897 285.38 71.7206 285.42 71.9398 285.523C72.1389 285.636 72.3006 285.788 72.4251 285.978C72.5446 286.184 72.6012 286.403 72.5947 286.636C72.5882 286.869 72.4877 287.08 72.2933 287.271C71.7455 287.836 71.3318 288.401 71.0521 288.967C70.7524 289.544 70.5351 290.046 70.4 290.473C70.0769 291.495 70.0874 292.337 70.4317 293C70.7559 293.673 71.4062 294.164 72.3826 294.472L74.4421 295.124L74.377 295.33C73.6713 294.855 73.1977 294.176 72.9563 293.295C72.7253 292.433 72.7545 291.544 73.0439 290.629C73.3622 289.622 73.8684 288.817 74.5624 288.214C75.2716 287.616 76.1109 287.244 77.0802 287.097C78.0495 286.951 79.091 287.054 80.2046 287.406C81.0437 287.671 81.7627 288.024 82.3616 288.465C82.9709 288.926 83.4522 289.448 83.8053 290.029C84.1536 290.626 84.361 291.27 84.4274 291.962C84.5043 292.675 84.4246 293.405 84.1882 294.152C83.8892 295.098 83.3923 295.847 82.6975 296.399C82.0132 296.972 81.2558 297.244 80.4255 297.217L79.9258 296.807L81.5505 297.32C82.0235 297.47 82.3434 297.705 82.5103 298.027C82.6724 298.363 82.6835 298.753 82.5437 299.195C82.399 299.653 82.166 299.965 81.8447 300.132C81.5235 300.299 81.1264 300.308 80.6535 300.158L71.8432 297.373C70.0278 296.799 68.8143 295.887 68.2028 294.636C67.5913 293.386 67.575 291.845 68.1537 290.014ZM74.9719 292.094C74.7838 292.689 74.7595 293.244 74.8991 293.758C75.0386 294.272 75.324 294.723 75.7551 295.111C76.1966 295.519 76.7682 295.834 77.47 296.056C78.5226 296.388 79.4285 296.39 80.1874 296.059C80.9616 295.733 81.4886 295.128 81.7683 294.243C81.9564 293.648 81.9807 293.094 81.8411 292.58C81.7016 292.066 81.4187 291.607 80.9924 291.204C80.5613 290.816 79.9949 290.511 79.2931 290.289C78.2404 289.956 77.327 289.953 76.5528 290.278C75.7786 290.604 75.2516 291.21 74.9719 292.094Z" fill="#FE1468"/>
<path d="M67.5598 306.116C67.9797 304.856 68.5766 303.849 69.3507 303.096C70.1247 302.342 71.0278 301.858 72.06 301.646C73.0871 301.448 74.1926 301.547 75.3766 301.941C76.5302 302.326 77.4613 302.897 78.1697 303.656C78.873 304.43 79.3285 305.316 79.536 306.313C79.7537 307.329 79.683 308.377 79.3238 309.455C79.0608 310.244 78.6966 310.907 78.2311 311.443C77.7606 311.995 77.2092 312.41 76.5767 312.688C75.9392 312.981 75.2334 313.126 74.4593 313.121C73.6953 313.136 72.8807 312.999 72.0155 312.711C71.7422 312.62 71.5626 312.451 71.4766 312.203C71.4006 311.975 71.4209 311.687 71.5372 311.337L73.9727 304.029L75.6121 304.575L73.4801 310.973L73.2599 310.495C73.9582 310.728 74.578 310.816 75.1194 310.76C75.6557 310.72 76.111 310.543 76.4854 310.229C76.8699 309.935 77.1583 309.5 77.3505 308.923C77.563 308.286 77.5933 307.689 77.4414 307.132C77.2997 306.596 76.9961 306.115 76.5306 305.69C76.0751 305.286 75.4755 304.959 74.7318 304.712L74.5724 304.658C73.3277 304.244 72.298 304.221 71.4835 304.59C70.679 304.98 70.0871 305.744 69.7077 306.883C69.5762 307.277 69.4751 307.733 69.4043 308.249C69.3436 308.785 69.3614 309.314 69.4575 309.835C69.5335 310.214 69.5158 310.521 69.4045 310.753C69.3084 310.991 69.1617 311.153 68.9644 311.239C68.762 311.34 68.5419 311.368 68.3041 311.323C68.0815 311.282 67.8765 311.163 67.6893 310.966C67.497 310.784 67.3629 310.528 67.287 310.199C67.1301 309.557 67.0845 308.859 67.1502 308.105C67.226 307.371 67.3626 306.708 67.5598 306.116Z" fill="#FE1468"/>
<path d="M63.6064 317.938C63.8225 317.285 64.1195 316.616 64.4975 315.933C64.8754 315.249 65.3269 314.673 65.8521 314.207C66.0844 314.014 66.3169 313.897 66.5495 313.856C66.7923 313.835 67.01 313.865 67.2024 313.946C67.405 314.046 67.5622 314.183 67.6739 314.354C67.7806 314.541 67.824 314.741 67.8043 314.954C67.7795 315.181 67.6661 315.397 67.4642 315.6C66.9746 316.112 66.581 316.613 66.2836 317.105C66.0014 317.601 65.7749 318.108 65.604 318.624C65.3628 319.353 65.3059 319.933 65.4334 320.363C65.571 320.813 65.8449 321.106 66.255 321.241C66.6044 321.357 66.9104 321.323 67.1731 321.14C67.446 320.978 67.7058 320.676 67.9528 320.236L69.1395 318.1C69.6334 317.219 70.2139 316.61 70.881 316.275C71.5583 315.96 72.2995 315.935 73.1045 316.202C73.8337 316.443 74.3987 316.849 74.7997 317.42C75.1957 318.006 75.4199 318.703 75.4723 319.513C75.5247 320.322 75.3977 321.19 75.0911 322.117C74.87 322.785 74.588 323.383 74.2451 323.91C73.9124 324.457 73.5037 324.954 73.019 325.4C72.8221 325.588 72.6124 325.687 72.3897 325.698C72.1621 325.723 71.9495 325.678 71.7519 325.562C71.5695 325.452 71.4174 325.3 71.2955 325.108C71.1889 324.921 71.1479 324.714 71.1727 324.486C71.2077 324.279 71.3286 324.066 71.5356 323.848C71.9344 323.457 72.2598 323.059 72.5119 322.654C72.759 322.264 72.9478 321.871 73.0785 321.476C73.3247 320.732 73.379 320.135 73.2414 319.685C73.0988 319.25 72.8148 318.962 72.3894 318.822C72.0704 318.716 71.7694 318.734 71.4864 318.877C71.2034 319.019 70.951 319.298 70.7294 319.713L69.5426 321.849C69.0337 322.776 68.4532 323.409 67.8013 323.75C67.1444 324.106 66.4057 324.148 65.5855 323.876C64.4766 323.509 63.7464 322.788 63.3948 321.711C63.0585 320.639 63.129 319.381 63.6064 317.938Z" fill="#FE1468"/>
<defs>
<linearGradient id="paint0_linear_888_6052" x1="118.942" y1="-115.592" x2="-255.819" y2="386.648" gradientUnits="userSpaceOnUse">
<stop stop-color="#FE1468"/>
<stop offset="1" stop-color="#F992B7"/>
</linearGradient>
</defs>
</svg>
